<svg height="480pt" viewBox="0 -12 480 480" width="480pt" xmlns="http://www.w3.org/2000/svg"><path d="m472 224h-16v-8h-16v8h-16c-4.417969 0-8 3.582031-8 8v16h-16v-24h8c4.417969 0 8-3.582031 8-8v-128c0-4.417969-3.582031-8-8-8h-8v-32c2.121094 0 4.15625-.84375 5.65625-2.34375l16-16c1.5-1.5 2.34375-3.535156 2.34375-5.65625v-16c0-4.417969-3.582031-8-8-8h-408c-4.417969 0-8 3.582031-8 8v16c0 2.121094.84375 4.15625 2.34375 5.65625l13.65625 13.65625v36.6875h-8c-4.417969 0-8 3.582031-8 8v128c0 4.417969 3.582031 8 8 8h8v216h-16v16h416v-16h-16v-96h16v16c0 4.417969 3.582031 8 8 8h16v8h16v-8h16c4.417969 0 8-3.582031 8-8v-128c0-4.417969-3.582031-8-8-8zm-456-208h392v4.6875l-11.3125 11.3125h-369.375l-11.3125-11.3125zm368 32v32h-352v-32zm-32 392h-64v-168h64zm32 0h-16v-176c0-4.417969-3.582031-8-8-8h-80c-4.417969 0-8 3.582031-8 8v176h-240v-216h352zm-368-232v-112h384v112zm400 120h-16v-64h16zm48 24h-22.113281l22.113281-11.054688zm0-28.945312-32 16v-22.109376l32-16zm0-40-32 16v-22.109376l32-16zm0-40-32 16v-19.054688h32zm0 0"/><path d="m56 416h192c4.417969 0 8-3.582031 8-8v-144c0-4.417969-3.582031-8-8-8h-192c-4.417969 0-8 3.582031-8 8v144c0 4.417969 3.582031 8 8 8zm136-144h48v32h-48zm0 48h48v32h-48zm0 48h48v32h-48zm-64-96h48v32h-48zm0 48h48v32h-48zm0 48h48v32h-48zm-64-96h48v32h-48zm0 48h48v32h-48zm0 48h48v32h-48zm0 0"/><path d="m133.472656 120.414062-45.472656 15.171876c-.121094-10.6875-7.296875-20.003907-17.59375-22.855469-10.300781-2.851563-21.246094 1.449219-26.84375 10.550781-5.601562 9.101562-4.507812 20.808594 2.675781 28.71875-7.109375 7.90625-8.152343 19.554688-2.5625 28.601562 5.585938 9.046876 16.472657 13.328126 26.726563 10.507813s17.417968-12.0625 17.597656-22.695313l45.511719 15.203126 5.054687-15.203126-49.269531-16.414062 49.230469-16.414062zm-69.472656 55.585938c-4.261719.050781-7.804688-3.277344-8.019531-7.535156-.214844-4.257813 2.972656-7.925782 7.21875-8.304688l6.402343 2.128906c2.320313 2.273438 3.03125 5.726563 1.804688 8.734376-1.230469 3.011718-4.15625 4.976562-7.40625 4.976562zm5.601562-34.289062-6.402343 2.128906c-3.652344-.445313-6.511719-3.367188-6.875-7.03125-.367188-3.664063 1.855469-7.089844 5.347656-8.253906 3.492187-1.160157 7.324219.253906 9.226563 3.410156 1.898437 3.152344 1.359374 7.199218-1.296876 9.746094zm0 0"/><path d="m168 128h16v24h-16zm0 0"/><path d="m200 128h16v24h-16zm0 0"/><path d="m232 128h16v24h-16zm0 0"/><path d="m264 128h16v24h-16zm0 0"/><path d="m296 128h16v24h-16zm0 0"/><path d="m328 128h16v24h-16zm0 0"/><path d="m360 128h16v24h-16zm0 0"/><path d="m208 168h128v16h-128zm0 0"/><path d="m304 320h16v80h-16zm0 0"/></svg>