<?xml version="1.0" encoding="iso-8859-1"?>
<!-- Generator: Adobe Illustrator 19.0.0, SVG Export Plug-In . SVG Version: 6.00 Build 0)  -->
<svg version="1.1" id="Capa_1" xmlns="http://www.w3.org/2000/svg" xmlns:xlink="http://www.w3.org/1999/xlink" x="0px" y="0px"
	 viewBox="0 0 416.256 416.256" style="enable-background:new 0 0 416.256 416.256;" xml:space="preserve">
<g>
	<g>
		<path d="M274.176,95.744c3.072,0,5.12-2.048,5.12-5.12v-28.16c0-3.072-2.048-5.12-5.12-5.12h-5.12
			C268.032,25.6,241.408,0,209.664,0c-31.744,0-58.368,25.6-60.416,56.832h-7.168c-3.072,0-5.12,2.048-5.12,5.12v28.16
			c0,3.072,2.048,5.12,5.12,5.12h5.632v226.304h-5.632c-3.072,0-5.12,2.048-5.12,5.12v28.16c0,3.072,2.56,5.632,5.12,5.632h5.632
			c2.048,31.232,28.16,55.808,59.904,55.808s57.856-24.576,59.904-55.808h6.656c3.072,0,5.12-2.048,5.12-5.12v-28.16
			c0-3.072-2.048-5.12-5.12-5.12h-5.632V95.744H274.176z M209.664,10.24c26.624,0,48.128,20.48,50.176,46.592H159.488
			C161.536,31.232,183.04,10.24,209.664,10.24z M208.128,406.016c-26.112,0-47.616-19.968-49.664-45.568h99.84
			C255.744,386.048,234.24,406.016,208.128,406.016z M269.568,332.288v17.92H147.2v-17.92H269.568z M186.112,321.536h-27.648
			v-28.672c0.512,0,0.512,0,1.024-0.512l99.328-66.048v46.592L186.112,321.536z M258.816,285.696v36.352h-54.272L258.816,285.696z
			 M158.464,280.576v-46.592c0.512,0,0.512,0,1.024-0.512l99.328-66.048v46.592L158.464,280.576z M158.464,221.696v-46.592
			c0.512,0,0.512,0,1.024-0.512l99.328-66.048v46.592L158.464,221.696z M258.304,96.256l-100.352,66.56v-43.52l35.84-23.552h64.512
			V96.256z M157.952,107.008V95.744h17.408L157.952,107.008z M147.2,84.992v-17.92h122.368v17.92H147.2z"/>
	</g>
</g>
<g>
</g>
<g>
</g>
<g>
</g>
<g>
</g>
<g>
</g>
<g>
</g>
<g>
</g>
<g>
</g>
<g>
</g>
<g>
</g>
<g>
</g>
<g>
</g>
<g>
</g>
<g>
</g>
<g>
</g>
</svg>
